<svg id="edm95NugH6U1" xmlns="http://www.w3.org/2000/svg" xmlns:xlink="http://www.w3.org/1999/xlink" viewBox="0 0 1123 972" shape-rendering="geometricPrecision" text-rendering="geometricPrecision"><style><![CDATA[#edm95NugH6U6_tr {animation: edm95NugH6U6_tr__tr 3000ms linear infinite normal forwards}@keyframes edm95NugH6U6_tr__tr { 0% {transform: translate(374.749985px,191px) rotate(1315.884376deg)} 100% {transform: translate(374.749985px,191px) rotate(1204.198210deg)}} #edm95NugH6U8_tr {animation: edm95NugH6U8_tr__tr 3000ms linear infinite normal forwards}@keyframes edm95NugH6U8_tr__tr { 0% {transform: translate(855.150055px,310.349983px) rotate(0deg)} 100% {transform: translate(855.150055px,310.349983px) rotate(127.462433deg)}}]]></style><g id="edm95NugH6U2" transform="matrix(1 0 0 1 -19.23661804500011 2.25534820000001)" paint-order="fill markers stroke"><g id="edm95NugH6U3"><path id="edm95NugH6U4" d="M220.900000,762.700000C222.800000,767.400000,224.900000,772.100000,227.200000,776.600000C261.400000,843.700000,330.800000,886,404.800000,893.600000C464,899.600000,521.600000,880.300000,571.100000,848.800000C620.500000,817.400000,660.100000,773.200000,715,750.200000C792.400000,717.900000,878.700000,692.400000,939.400000,624C1008.400000,546.300000,1035,428.500000,1002.500000,329.100000C970.900000,232.100000,866,200.700000,784.500000,158C638,81.100000,435.100000,30,282.600000,120.300000C99.900000,228.400000,133.100000,473.800000,191,644.100000C204.200000,682.900000,205.800000,724.700000,220.900000,762.700000Z" transform="matrix(1 0 0 1 2.93222992000005 3.42082061500003)" opacity="0.37" fill="rgb(204,233,255)" stroke="none" stroke-width="1" stroke-miterlimit="1"/><path id="edm95NugH6U5" d="M314.100000,302.900000L313.800000,301L311.900000,301C274.900000,301,262.900000,289.100000,262.800000,289L261.200000,287.200000L259.600000,289C259.500000,289.100000,247.600000,301,210.500000,301L208.600000,301L208.300000,302.900000C208.200000,303.500000,200.400000,363.100000,260.200000,393.700000L261.200000,394.200000L262.200000,393.700000C322.200000,363.100000,314.100000,303.500000,314.100000,302.900000ZM305.100000,339.800000C297.700000,361.200000,282.900000,377.800000,261.100000,389.200000C239.300000,377.800000,224.500000,361.200000,217.100000,339.800000C211.700000,324.100000,212,310.400000,212.400000,305.500000C243.200000,305.100000,256.900000,296.900000,261.100000,293.500000C265.300000,296.800000,279,305.100000,309.800000,305.500000C310.200000,310.500000,310.500000,324.100000,305.100000,339.800000Z" fill="rgb(15,4,76)" stroke="none" stroke-width="1" stroke-miterlimit="1"/><g id="edm95NugH6U6_tr" transform="translate(374.749985,191) rotate(1315.884376)"><g id="edm95NugH6U6" transform="translate(-374.749985,-191)"><path id="edm95NugH6U7" d="M372.800000,226.300000L370.700000,220.800000C368.800000,220.600000,367,220.100000,365.200000,219.500000L360.900000,223.500000L348.500000,214.600000L350.900000,209.200000C349.700000,207.700000,348.700000,206.100000,347.900000,204.400000L342,204.200000L339.500000,189.100000L345,187C345.200000,185.100000,345.700000,183.300000,346.300000,181.500000L342.300000,177.200000L351.200000,164.700000L356.600000,167.100000C358.100000,165.900000,359.700000,164.900000,361.400000,164.100000L361.600000,158.200000L376.700000,155.700000L378.800000,161.200000C380.700000,161.400000,382.500000,161.900000,384.300000,162.500000L388.600000,158.500000L401,167.400000L398.600000,172.800000C399.800000,174.300000,400.800000,175.900000,401.600000,177.600000L407.500000,177.800000L410,192.900000L404.500000,195C404.200000,196.900000,403.800000,198.700000,403.200000,200.500000L407.200000,204.800000L398.300000,217.300000L392.900000,214.900000C391.400000,216.100000,389.800000,217.100000,388.100000,217.900000L387.900000,223.800000L372.800000,226.300000ZM364.200000,214.700000L365.400000,215.200000C367.600000,216.100000,370,216.600000,372.400000,216.800000L373.700000,216.900000L375.500000,221.600000L383.800000,220.200000L384,215.200000L385.200000,214.700000C387.400000,213.700000,389.400000,212.400000,391.300000,210.900000L392.300000,210.100000L396.900000,212.200000L401.800000,205.400000L398.300000,201.700000L398.800000,200.500000C399.700000,198.300000,400.200000,195.900000,400.400000,193.500000L400.500000,192.200000L405.200000,190.400000L403.800000,182.100000L398.800000,181.900000L398.300000,180.700000C397.300000,178.500000,396,176.500000,394.500000,174.600000L393.700000,173.600000L395.800000,169L389,164.100000L385.300000,167.500000L384.100000,167C381.900000,166.100000,379.500000,165.600000,377.100000,165.400000L375.800000,165.300000L374,160.600000L365.700000,162L365.500000,167L364.300000,167.500000C362.100000,168.500000,360.100000,169.800000,358.200000,171.300000L357.200000,172.100000L352.600000,170L347.700000,176.800000L351.200000,180.500000L350.700000,181.700000C349.800000,183.900000,349.300000,186.300000,349.100000,188.700000L349,190L344.300000,191.800000L345.700000,200.100000L350.700000,200.300000L351.200000,201.500000C352.200000,203.700000,353.500000,205.700000,355,207.600000L355.800000,208.600000L353.700000,213.200000L360.500000,218.100000L364.200000,214.700000ZM374.600000,207.700000C371.200000,207.700000,367.800000,206.600000,365,204.600000C357.500000,199.300000,355.800000,188.900000,361.100000,181.400000C366.400000,173.900000,376.800000,172.200000,384.300000,177.500000C387.900000,180.100000,390.300000,183.900000,391.100000,188.300000C391.800000,192.700000,390.800000,197.100000,388.300000,200.700000C385.700000,204.300000,381.900000,206.700000,377.500000,207.500000C376.400000,207.600000,375.500000,207.700000,374.600000,207.700000ZM374.600000,178.600000C370.700000,178.600000,366.900000,180.400000,364.500000,183.800000C362.600000,186.500000,361.800000,189.800000,362.400000,193.100000C363,196.400000,364.700000,199.200000,367.400000,201.100000L367.400000,201.100000C370.100000,203,373.400000,203.800000,376.700000,203.200000C380,202.600000,382.800000,200.900000,384.700000,198.200000C386.600000,195.500000,387.400000,192.200000,386.800000,188.900000C386.200000,185.600000,384.500000,182.800000,381.800000,180.900000C379.600000,179.400000,377.100000,178.600000,374.600000,178.600000Z" transform="matrix(0.14175151273262 0.98990227226632 -0.98990227226632 0.14175151273262 516.36457755126980 -207.82342373620759)" fill="rgb(15,4,76)" stroke="none" stroke-width="1" stroke-miterlimit="1"/></g></g><g id="edm95NugH6U8_tr" transform="translate(855.150055,310.349983) rotate(0)"><g id="edm95NugH6U8" transform="translate(-855.150055,-310.349983)"><path id="edm95NugH6U9" d="M852.200000,389.300000L847.500000,377C842.500000,376.400000,837.500000,375.300000,832.800000,373.600000L823.200000,382.600000L797.200000,364.100000L802.600000,352.100000C799.500000,348.200000,796.800000,343.900000,794.600000,339.300000L781.500000,338.900000L776.200000,307.400000L788.500000,302.700000C789.100000,297.700000,790.200000,292.700000,791.900000,288L782.900000,278.400000L801.400000,252.400000L813.400000,257.800000C817.300000,254.700000,821.600000,252,826.200000,249.800000L826.600000,236.700000L858.100000,231.400000L862.800000,243.700000C867.800000,244.300000,872.800000,245.400000,877.500000,247.100000L887.100000,238.100000L913.100000,256.600000L907.700000,268.600000C910.800000,272.500000,913.500000,276.800000,915.700000,281.400000L928.800000,281.800000L934.100000,313.300000L921.800000,318C921.200000,323,920.100000,328,918.400000,332.700000L927.400000,342.300000L908.900000,368.300000L896.900000,362.900000C893,366,888.700000,368.700000,884.100000,370.900000L883.700000,384L852.200000,389.300000ZM831.400000,367.200000L833,367.800000C838.300000,369.800000,843.900000,371.100000,849.600000,371.600000L851.400000,371.800000L855.700000,383L878.100000,379.200000L878.500000,367.200000L880.100000,366.500000C885.300000,364.200000,890.200000,361.100000,894.600000,357.400000L895.900000,356.300000L906.900000,361.200000L920.100000,342.700000L911.900000,333.900000L912.500000,332.300000C914.500000,327,915.800000,321.400000,916.300000,315.700000L916.400000,313.900000L927.600000,309.600000L923.800000,287.200000L911.800000,286.800000L911.100000,285.200000C908.800000,280,905.700000,275.100000,902,270.700000L900.900000,269.400000L905.800000,258.400000L887.300000,245.200000L878.500000,253.400000L876.900000,252.800000C871.600000,250.800000,866,249.500000,860.300000,249L858.500000,248.900000L854.200000,237.700000L831.800000,241.500000L831.400000,253.500000L829.800000,254.200000C824.600000,256.500000,819.700000,259.600000,815.300000,263.300000L814,264.400000L803,259.500000L790,278L798.200000,286.800000L797.600000,288.400000C795.600000,293.700000,794.300000,299.300000,793.800000,305L793.700000,306.800000L782.500000,311.100000L786.300000,333.500000L798.300000,333.900000L799,335.500000C801.300000,340.700000,804.400000,345.600000,808.100000,350L809.200000,351.300000L804.300000,362.300000L822.800000,375.500000L831.400000,367.200000ZM855,346.600000C847.700000,346.600000,840.400000,344.400000,834,339.900000C817.700000,328.300000,813.900000,305.600000,825.500000,289.300000C837.100000,273,859.800000,269.200000,876.100000,280.800000C892.400000,292.400000,896.200000,315.100000,884.600000,331.400000C877.500000,341.300000,866.300000,346.600000,855,346.600000ZM855.100000,279.700000C845.500000,279.700000,836,284.200000,830.100000,292.600000C825.300000,299.300000,823.500000,307.400000,824.800000,315.500000C826.200000,323.600000,830.600000,330.600000,837.300000,335.400000C851.100000,345.200000,870.300000,342,880.100000,328.200000C884.800000,321.500000,886.700000,313.400000,885.400000,305.300000C884,297.200000,879.600000,290.200000,872.900000,285.400000C867.400000,281.500000,861.200000,279.700000,855.100000,279.700000Z" fill="rgb(15,4,76)" stroke="none" stroke-width="1" stroke-miterlimit="1"/></g></g><path id="edm95NugH6U10" d="M365.300000,614.300000C360.500000,600.800000,355,585.600000,361.100000,570C369.300000,549,351.900000,538.200000,336.600000,528.500000C323.400000,520.300000,311,512.500000,315.200000,499.600000C319.800000,485.600000,319.500000,474.800000,314.300000,467.700000C309.900000,461.700000,302.100000,458.500000,291.700000,458.600000C283.400000,458.700000,276,448.500000,268.100000,437.800000C258.800000,425.200000,249.300000,412.200000,237.300000,415.100000C235.200000,415.600000,233.500000,416.800000,232.500000,418.700000C228.300000,426.600000,234.900000,445.400000,242,465.400000C249.600000,487,258.300000,511.400000,252.600000,521.800000C246.400000,533.200000,257.600000,543.600000,269.500000,554.700000C282.100000,566.400000,296.400000,579.700000,292.600000,596.400000C289,612,288.200000,617.800000,290.400000,621.200000C292.100000,623.900000,295.600000,624.500000,300.900000,625.500000C304.500000,626.200000,309.100000,627,314.700000,628.800000C338.800000,636.300000,345.800000,651.900000,345.900000,652.100000L346.200000,652.800000L346.900000,652.700000C358.500000,650.900000,365.300000,647.600000,368.500000,642.300000C368.700000,642,368.800000,641.700000,369,641.400000C372.400000,634.300000,369.100000,625,365.300000,614.300000Z" fill="rgb(15,4,76)" stroke="none" stroke-width="1" stroke-miterlimit="1"/><path id="edm95NugH6U11" d="M303.700000,584.500000C307.700000,590.700000,310.600000,596.100000,310.300000,603.700000C310.100000,610.800000,309,617.800000,308.400000,624.800000C308.300000,626.300000,308.200000,627.700000,308.100000,629.100000C306.100000,627.400000,304.200000,625.700000,302.200000,624C301.300000,623.900000,300.400000,623.900000,299.400000,623.900000C302.200000,626.200000,305.100000,628.700000,307.900000,631.200000C307.600000,636.100000,307.500000,641,307.500000,645.900000C307.500000,648.800000,307.400000,651.900000,307.600000,654.800000C305,653.200000,302.300000,651.600000,299.800000,650C292,645.200000,284.700000,640.700000,279.100000,638.300000C274.800000,636.500000,270,634.900000,265.400000,633.400000C253.400000,629.500000,241.100000,625.500000,237,617C234.900000,612.600000,235.100000,607.300000,237.600000,600.900000C243.900000,584.400000,238,581.600000,228.100000,576.800000C220.900000,573.300000,211.100000,568.600000,201.300000,556.700000C197,551.500000,193.200000,547,189.800000,543.100000C179.700000,531.200000,174.100000,524.700000,174.800000,520.900000C175,520,175.500000,519.200000,176.500000,518.400000C177,518,177.600000,517.600000,178.400000,517.200000C182.200000,515.100000,186,516.700000,190.300000,518.500000C196.100000,520.900000,203.200000,524,213.100000,518.900000C220.900000,514.900000,229.600000,511.200000,234.800000,514.200000C238.400000,516.200000,240.500000,521.400000,241.200000,529.900000C241.400000,532.600000,242.300000,534.500000,243.800000,535.600000C246,537.200000,249.400000,537,253.300000,536.200000C253.300000,536.200000,253.300000,536.200000,253.300000,536.200000C256,539.900000,259.500000,541.700000,263.700000,543.200000C269.600000,545.300000,274,547.200000,278.300000,552C287.500000,562.400000,296.400000,573,303.700000,584.500000Z" fill="rgb(42,148,244)" stroke="none" stroke-width="1" stroke-miterlimit="1"/><path id="edm95NugH6U12" d="M271.800000,601C265.800000,597,260.600000,587.300000,255.600000,577.900000C248.800000,565.100000,241.700000,551.900000,232,552.200000C216.400000,552.600000,202.500000,534.200000,202.300000,534.100000L201,535.100000C201.600000,535.900000,215.600000,554.300000,232,553.900000C240.700000,553.700000,247.600000,566.400000,254.100000,578.800000C259.200000,588.300000,264.500000,598.200000,270.800000,602.500000C274.600000,605,281.600000,610.100000,289.900000,616.600000C289.900000,615.900000,289.900000,615.200000,289.900000,614.500000C282.600000,608.400000,276.100000,603.800000,271.800000,601Z" fill="rgb(255,255,255)" stroke="none" stroke-width="1" stroke-miterlimit="1"/><path id="edm95NugH6U13" d="M798.800000,724.900000C798.800000,724.900000,807.800000,702.500000,791.400000,670.700000C774.900000,638.900000,761.600000,643.800000,801.300000,619.300000C841,594.800000,801.500000,517.800000,835.300000,508C869.100000,498.200000,898.400000,373.500000,924.100000,389.400000C949.800000,405.300000,915.500000,466.400000,933.900000,484.800000C952.200000,503.200000,954.700000,526.500000,916.800000,545.400000C878.900000,564.300000,943.700000,636.500000,892.300000,658.500000C840.900000,680.500000,855.700000,766.800000,798.800000,724.900000Z" fill="rgb(15,4,76)" stroke="none" stroke-width="1" stroke-miterlimit="1"/><g id="edm95NugH6U14"><path id="edm95NugH6U15" d="M814.500000,748.600000C814.400000,748.300000,808.900000,719.700000,826.400000,682.700000C844.200000,645,852.700000,603.800000,849.200000,572.400000C847.300000,555.400000,858.200000,548.800000,868.700000,542.400000C879.100000,536.100000,889.800000,529.500000,889.200000,512.800000C888.700000,497.700000,895.100000,462.300000,895.300000,460.800000L897.600000,461.200000C897.500000,461.600000,891,497.900000,891.500000,512.700000C892.100000,530.800000,880.800000,537.700000,869.900000,544.300000C859.500000,550.600000,849.800000,556.600000,851.500000,572.100000C855.100000,603.800000,846.500000,645.500000,828.500000,683.600000C811.400000,719.900000,816.700000,747.800000,816.800000,748.100000L814.500000,748.600000Z" fill="rgb(255,255,255)" stroke="none" stroke-width="1" stroke-miterlimit="1"/></g><path id="edm95NugH6U16" d="M951,562.800000C965.300000,556,980.500000,559.100000,972.600000,573.400000C964.700000,587.700000,952.900000,588.800000,955.100000,600.100000C957.300000,611.400000,963.100000,623.700000,944.500000,630.900000C925.900000,638,917.200000,636.800000,905.900000,657.700000C894.500000,678.600000,890.600000,694.100000,871.100000,689.100000C851.600000,684,867.800000,658.300000,877.900000,647.500000C877.900000,647.500000,891.600000,635.900000,891.400000,615C891.200000,594.100000,882.600000,580.100000,909.600000,581.500000C936.600000,582.700000,941.300000,567.400000,951,562.800000Z" fill="rgb(14,83,140)" stroke="none" stroke-width="1" stroke-miterlimit="1"/><g id="edm95NugH6U17"><path id="edm95NugH6U18" d="M868,703.700000C868.800000,701,887.600000,636.300000,903,629.300000C918.700000,622.100000,927.200000,603.300000,930.900000,592.800000C935.700000,579.100000,956.200000,576.400000,957,576.300000L957.300000,578.600000C957.100000,578.600000,937.400000,581.200000,933.100000,593.500000C928.500000,606.800000,919.700000,624.200000,904,631.400000C889.600000,638,870.500000,703.700000,870.300000,704.400000L868,703.700000Z" fill="rgb(255,255,255)" stroke="none" stroke-width="1" stroke-miterlimit="1"/></g><path id="edm95NugH6U19" d="M372.700000,651.600000C341.900000,643.900000,341.500000,627.300000,341.100000,611.300000C340.800000,598.200000,340.500000,585.800000,323.800000,578.200000C301.700000,568.100000,301.200000,549.400000,300.700000,532.900000C300.300000,520.600000,300,509,290.800000,502.700000C268.700000,487.600000,250,451,249.800000,450.600000L251.500000,449.700000C251.700000,450.100000,270.100000,486.200000,291.900000,501.100000C301.900000,507.900000,302.300000,520,302.600000,532.800000C303.100000,549.500000,303.600000,566.900000,324.600000,576.400000C342.300000,584.500000,342.700000,598.100000,343,611.200000C343.400000,627.200000,343.800000,642.400000,373.200000,649.700000L372.700000,651.600000Z" fill="rgb(255,255,255)" stroke="none" stroke-width="1" stroke-miterlimit="1"/><g id="edm95NugH6U20"><g id="edm95NugH6U21" display="none"><path id="edm95NugH6U22" d="M331.200000,636.800000L837.100000,636.800000L837.100000,271.600000C837.100000,266.400000,832.900000,262.100000,827.600000,262.100000L340.700000,262.100000C335.500000,262.100000,331.200000,266.300000,331.200000,271.600000L331.200000,636.800000Z" transform="matrix(1 0 0 1 -5.49999999999989 3.54999999999995)" fill="rgb(247,247,247)" stroke="none" stroke-width="1" stroke-miterlimit="1"/></g><g id="edm95NugH6U23"><rect id="edm95NugH6U24" width="469.200000" height="288.300000" rx="0" ry="0" transform="matrix(-1 0 -0 -1 818.26999999999975 568.71299999999997)" fill="rgb(11,72,112)" stroke="rgb(255,255,255)" stroke-width="0.500000" stroke-miterlimit="1" stroke-dashoffset="1515" stroke-dasharray="0"/></g><polygon id="edm95NugH6U25" points="837.100000,582.700000 584.200000,582.700000 331.400000,582.700000 276,789.600000 585.900000,789.600000 892.400000,789.600000" fill="rgb(242,242,242)" stroke="none" stroke-width="1" stroke-miterlimit="1"/><path id="edm95NugH6U26" d="M350.500000,619L381.600000,619C382.900000,619,383.900000,620,383.600000,621.100000L380.600000,634.600000C380.400000,635.400000,379.600000,636,378.600000,636L347,636C345.700000,636,344.700000,635,345,633.800000L348.500000,620.300000C348.700000,619.600000,349.500000,619,350.500000,619Z" fill="rgb(11,72,112)" stroke="rgb(255,255,255)" stroke-width="0.500000" stroke-miterlimit="1"/><polygon id="edm95NugH6U27" points="395.800000,619 419.300000,619 416.200000,636.100000 392.200000,636.100000" fill="rgb(11,72,112)" stroke="rgb(255,255,255)" stroke-width="0.500000" stroke-miterlimit="1"/><polygon id="edm95NugH6U28" points="431,619 454.500000,619 452.100000,636.100000 428.100000,636.100000" fill="rgb(11,72,112)" stroke="rgb(255,255,255)" stroke-width="0.500000" stroke-miterlimit="1"/><polygon id="edm95NugH6U29" points="466.300000,619 489.800000,619 488,636.100000 464,636.100000" fill="rgb(11,72,112)" stroke="rgb(255,255,255)" stroke-width="0.500000" stroke-miterlimit="1"/><polygon id="edm95NugH6U30" points="501.500000,619 525,619 523.900000,636.100000 499.900000,636.100000" fill="rgb(11,72,112)" stroke="rgb(255,255,255)" stroke-width="0.500000" stroke-miterlimit="1"/><polygon id="edm95NugH6U31" points="536.700000,619 560.200000,619 559.800000,636.100000 535.800000,636.100000" fill="rgb(11,72,112)" stroke="rgb(255,255,255)" stroke-width="0.500000" stroke-miterlimit="1"/><polygon id="edm95NugH6U32" points="818.700000,619 783.400000,619 787.200000,636.100000 823.100000,636.100000" fill="rgb(11,72,112)" stroke="rgb(255,255,255)" stroke-width="0.500000" stroke-miterlimit="1"/><polygon id="edm95NugH6U33" points="771.700000,619 748.200000,619 751.300000,636.100000 775.300000,636.100000" fill="rgb(11,72,112)" stroke="rgb(255,255,255)" stroke-width="0.500000" stroke-miterlimit="1"/><polygon id="edm95NugH6U34" points="736.500000,619 713,619 715.400000,636.100000 739.400000,636.100000" fill="rgb(11,72,112)" stroke="rgb(255,255,255)" stroke-width="0.500000" stroke-miterlimit="1"/><polygon id="edm95NugH6U35" points="701.200000,619 677.700000,619 679.500000,636.100000 703.500000,636.100000" fill="rgb(11,72,112)" stroke="rgb(255,255,255)" stroke-width="0.500000" stroke-miterlimit="1"/><polygon id="edm95NugH6U36" points="666,619 642.500000,619 643.600000,636.100000 667.600000,636.100000" fill="rgb(11,72,112)" stroke="rgb(255,255,255)" stroke-width="0.500000" stroke-miterlimit="1"/><polygon id="edm95NugH6U37" points="630.800000,619 607.300000,619 607.700000,636.100000 631.700000,636.100000" fill="rgb(11,72,112)" stroke="rgb(255,255,255)" stroke-width="0.500000" stroke-miterlimit="1"/><polygon id="edm95NugH6U38" points="572,619 595.500000,619 595.800000,636.100000 572,636.100000" fill="rgb(11,72,112)" stroke="rgb(255,255,255)" stroke-width="0.500000" stroke-miterlimit="1"/><polygon id="edm95NugH6U39" points="340.200000,648.800000 389.200000,648.800000 386.400000,666.400000 336.400000,666.400000" fill="rgb(11,72,112)" stroke="rgb(255,255,255)" stroke-width="0.500000" stroke-miterlimit="1"/><polygon id="edm95NugH6U40" points="826.300000,648.800000 765.700000,648.800000 769.100000,666.400000 831,666.400000" fill="rgb(11,72,112)" stroke="rgb(255,255,255)" stroke-width="0.500000" stroke-miterlimit="1"/><polygon id="edm95NugH6U41" points="753.500000,648.800000 729.300000,648.800000 732,666.400000 756.800000,666.400000" fill="rgb(11,72,112)" stroke="rgb(255,255,255)" stroke-width="0.500000" stroke-miterlimit="1"/><polygon id="edm95NugH6U42" points="717.100000,648.800000 692.900000,648.800000 694.900000,666.400000 719.700000,666.400000" fill="rgb(11,72,112)" stroke="rgb(255,255,255)" stroke-width="0.500000" stroke-miterlimit="1"/><polygon id="edm95NugH6U43" points="680.700000,648.800000 656.500000,648.800000 657.900000,666.400000 682.600000,666.400000" fill="rgb(11,72,112)" stroke="rgb(255,255,255)" stroke-width="0.500000" stroke-miterlimit="1"/><polygon id="edm95NugH6U44" points="644.300000,648.800000 620.100000,648.800000 620.800000,666.400000 645.500000,666.400000" fill="rgb(11,72,112)" stroke="rgb(255,255,255)" stroke-width="0.500000" stroke-miterlimit="1"/><polygon id="edm95NugH6U45" points="332.800000,680.100000 383,680.100000 379.300000,697.600000 328.200000,697.600000" fill="rgb(11,72,112)" stroke="rgb(255,255,255)" stroke-width="0.500000" stroke-miterlimit="1"/><polygon id="edm95NugH6U46" points="395.500000,680.100000 420.600000,680.100000 417.700000,697.600000 392.100000,697.600000" fill="rgb(11,72,112)" stroke="rgb(255,255,255)" stroke-width="0.500000" stroke-miterlimit="1"/><polygon id="edm95NugH6U47" points="433.200000,680.100000 458.300000,680.100000 621.300000,680.100000 622,697.600000 430.400000,697.600000" fill="rgb(11,72,112)" stroke="rgb(255,255,255)" stroke-width="0.500000" stroke-miterlimit="1"/><polygon id="edm95NugH6U48" points="633.900000,680.100000 659,680.100000 660.400000,697.600000 634.800000,697.600000" fill="rgb(11,72,112)" stroke="rgb(255,255,255)" stroke-width="0.500000" stroke-miterlimit="1"/><polygon id="edm95NugH6U49" points="671.500000,680.100000 696.600000,680.100000 698.700000,697.600000 673.100000,697.600000" fill="rgb(11,72,112)" stroke="rgb(255,255,255)" stroke-width="0.500000" stroke-miterlimit="1"/><polygon id="edm95NugH6U50" points="709.200000,680.100000 734.300000,680.100000 737,697.600000 711.500000,697.600000" fill="rgb(11,72,112)" stroke="rgb(255,255,255)" stroke-width="0.500000" stroke-miterlimit="1"/><polygon id="edm95NugH6U51" points="746.800000,680.100000 771.900000,680.100000 775.300000,697.600000 749.800000,697.600000" fill="rgb(11,72,112)" stroke="rgb(255,255,255)" stroke-width="0.500000" stroke-miterlimit="1"/><polygon id="edm95NugH6U52" points="784.400000,680.100000 834.600000,680.100000 839.200000,697.600000 788.100000,697.600000" fill="rgb(11,72,112)" stroke="rgb(255,255,255)" stroke-width="0.500000" stroke-miterlimit="1"/><polygon id="edm95NugH6U53" points="608,648.800000 583.900000,648.800000 583.900000,666.400000 608.400000,666.400000" fill="rgb(11,72,112)" stroke="rgb(255,255,255)" stroke-width="0.500000" stroke-miterlimit="1"/><polygon id="edm95NugH6U54" points="571.600000,648.800000 547.300000,648.800000 546.600000,666.400000 571.400000,666.400000" fill="rgb(11,72,112)" stroke="rgb(255,255,255)" stroke-width="0.500000" stroke-miterlimit="1"/><polygon id="edm95NugH6U55" points="535.200000,648.800000 510.900000,648.800000 509.500000,666.400000 534.300000,666.400000" fill="rgb(11,72,112)" stroke="rgb(255,255,255)" stroke-width="0.500000" stroke-miterlimit="1"/><polygon id="edm95NugH6U56" points="498.800000,648.800000 474.500000,648.800000 472.400000,666.400000 497.200000,666.400000" fill="rgb(11,72,112)" stroke="rgb(255,255,255)" stroke-width="0.500000" stroke-miterlimit="1"/><polygon id="edm95NugH6U57" points="462.400000,648.800000 438.100000,648.800000 435.300000,666.400000 460.100000,666.400000" fill="rgb(11,72,112)" stroke="rgb(255,255,255)" stroke-width="0.500000" stroke-miterlimit="1"/><polygon id="edm95NugH6U58" points="426,648.800000 401.700000,648.800000 398.300000,666.400000 423,666.400000" fill="rgb(11,72,112)" stroke="rgb(255,255,255)" stroke-width="0.500000" stroke-miterlimit="1"/><polygon id="edm95NugH6U59" points="351.600000,608.300000 355.600000,593.100000 367,593.100000 363.300000,608.300000" fill="rgb(11,72,112)" stroke="rgb(255,255,255)" stroke-width="0.500000" stroke-miterlimit="1"/><polygon id="edm95NugH6U60" points="378.400000,593.100000 401.200000,593.100000 398.100000,608.300000 374.800000,608.300000" fill="rgb(11,72,112)" stroke="rgb(255,255,255)" stroke-width="0.500000" stroke-miterlimit="1"/><polygon id="edm95NugH6U61" points="412.700000,593.100000 435.500000,593.100000 432.900000,608.300000 409.700000,608.300000" fill="rgb(11,72,112)" stroke="rgb(255,255,255)" stroke-width="0.500000" stroke-miterlimit="1"/><polygon id="edm95NugH6U62" points="446.900000,593.100000 469.700000,593.100000 467.700000,608.300000 444.500000,608.300000" fill="rgb(11,72,112)" stroke="rgb(255,255,255)" stroke-width="0.500000" stroke-miterlimit="1"/><polygon id="edm95NugH6U63" points="481.100000,593.100000 503.900000,593.100000 502.500000,608.300000 479.300000,608.300000" fill="rgb(11,72,112)" stroke="rgb(255,255,255)" stroke-width="0.500000" stroke-miterlimit="1"/><polygon id="edm95NugH6U64" points="515.300000,593.100000 538.100000,593.100000 537.300000,608.300000 514.100000,608.300000" fill="rgb(11,72,112)" stroke="rgb(255,255,255)" stroke-width="0.500000" stroke-miterlimit="1"/><polygon id="edm95NugH6U65" points="549.500000,593.100000 572.300000,593.100000 572.100000,608.300000 548.900000,608.300000" fill="rgb(11,72,112)" stroke="rgb(255,255,255)" stroke-width="0.500000" stroke-miterlimit="1"/><polygon id="edm95NugH6U66" points="583.700000,593.100000 606.500000,593.100000 606.900000,608.300000 583.700000,608.300000" fill="rgb(11,72,112)" stroke="rgb(255,255,255)" stroke-width="0.500000" stroke-miterlimit="1"/><polygon id="edm95NugH6U67" points="617.900000,593.100000 640.700000,593.100000 641.700000,608.300000 618.500000,608.300000" fill="rgb(11,72,112)" stroke="rgb(255,255,255)" stroke-width="0.500000" stroke-miterlimit="1"/><polygon id="edm95NugH6U68" points="652.100000,593.100000 675,593.100000 676.500000,608.300000 653.300000,608.300000" fill="rgb(11,72,112)" stroke="rgb(255,255,255)" stroke-width="0.500000" stroke-miterlimit="1"/><polygon id="edm95NugH6U69" points="686.400000,593.100000 709.200000,593.100000 711.400000,608.300000 688.200000,608.300000" fill="rgb(11,72,112)" stroke="rgb(255,255,255)" stroke-width="0.500000" stroke-miterlimit="1"/><polygon id="edm95NugH6U70" points="720.600000,593.100000 743.400000,593.100000 746.200000,608.300000 723,608.300000" fill="rgb(11,72,112)" stroke="rgb(255,255,255)" stroke-width="0.500000" stroke-miterlimit="1"/><polygon id="edm95NugH6U71" points="754.800000,593.100000 777.600000,593.100000 781,608.300000 757.800000,608.300000" fill="rgb(11,72,112)" stroke="rgb(255,255,255)" stroke-width="0.500000" stroke-miterlimit="1"/><polygon id="edm95NugH6U72" points="789,593.100000 811.800000,593.100000 815.800000,608.300000 792.600000,608.300000" fill="rgb(11,72,112)" stroke="rgb(255,255,255)" stroke-width="0.500000" stroke-miterlimit="1"/><path id="edm95NugH6U73" d="M876.300000,805.700000L292.100000,805.700000C283.200000,805.700000,276,798.500000,276,789.600000L276,789.600000L892.400000,789.600000L892.400000,789.600000C892.400000,798.500000,885.200000,805.700000,876.300000,805.700000Z" fill="rgb(211,211,211)" stroke="none" stroke-width="1" stroke-miterlimit="1"/><path id="edm95NugH6U74" d="M655.900000,722.700000C655.300000,719.100000,652.100000,716.400000,648.500000,716.400000L584.300000,716.400000L520,716.400000C516.300000,716.400000,513.200000,719.100000,512.600000,722.700000L504.600000,771.200000C503.800000,775.800000,507.400000,780,512,780L584.200000,780L656.400000,780C661.100000,780,664.600000,775.800000,663.800000,771.200000L655.900000,722.700000Z" fill="rgb(211,211,211)" stroke="none" stroke-width="1" stroke-miterlimit="1"/><g id="edm95NugH6U75" transform="matrix(0.99998029748943 0.00627731096531 -0.00627731096531 0.99998029748943 2.57672255361854 -3.65570107546250)"><g id="edm95NugH6U76"><rect id="edm95NugH6U77" width="52.300000" height="5.400000" rx="0" ry="0" transform="matrix(1 0 0 1 380.69999999999999 304.89999999999998)" fill="rgb(247,247,247)" stroke="none" stroke-width="1" stroke-miterlimit="1"/></g><g id="edm95NugH6U78"><rect id="edm95NugH6U79" width="37.700000" height="5.400000" rx="0" ry="0" transform="matrix(1 0 0 1 447.69999999999999 345.19999999999999)" fill="rgb(247,247,247)" stroke="none" stroke-width="1" stroke-miterlimit="1"/></g><g id="edm95NugH6U80"><rect id="edm95NugH6U81" width="25" height="5.400000" rx="0" ry="0" transform="matrix(1 0 0 1 491.30000000000001 345.19999999999999)" fill="rgb(247,247,247)" stroke="none" stroke-width="1" stroke-miterlimit="1"/></g><g id="edm95NugH6U82"><rect id="edm95NugH6U83" width="25" height="5.400000" rx="0" ry="0" transform="matrix(1 0 0 1 381.30000000000001 446.60000000000002)" fill="rgb(247,247,247)" stroke="none" stroke-width="1" stroke-miterlimit="1"/></g><g id="edm95NugH6U84"><rect id="edm95NugH6U85" width="60.500000" height="5.400000" rx="0" ry="0" transform="matrix(1 0 0 1 521.29999999999995 345.19999999999999)" fill="rgb(247,247,247)" stroke="none" stroke-width="1" stroke-miterlimit="1"/></g><g id="edm95NugH6U86"><rect id="edm95NugH6U87" width="38.900000" height="5.400000" rx="0" ry="0" transform="matrix(1 0 0 1 381.30000000000001 426.30000000000001)" fill="rgb(247,247,247)" stroke="none" stroke-width="1" stroke-miterlimit="1"/></g><g id="edm95NugH6U88"><rect id="edm95NugH6U89" width="23.700000" height="5.400000" rx="0" ry="0" transform="matrix(1 0 0 1 435.50000000000000 466.69999999999999)" fill="rgb(247,247,247)" stroke="none" stroke-width="1" stroke-miterlimit="1"/></g><g id="edm95NugH6U90"><rect id="edm95NugH6U91" width="47" height="5.400000" rx="0" ry="0" transform="matrix(1 0 0 1 381.30000000000001 466.69999999999999)" fill="rgb(247,247,247)" stroke="none" stroke-width="1" stroke-miterlimit="1"/></g><g id="edm95NugH6U92"><rect id="edm95NugH6U93" width="25.900000" height="5.400000" rx="0" ry="0" transform="matrix(1 0 0 1 381.30000000000001 486.89999999999998)" fill="rgb(247,247,247)" stroke="none" stroke-width="1" stroke-miterlimit="1"/></g><g id="edm95NugH6U94"><rect id="edm95NugH6U95" width="37.100000" height="5.400000" rx="0" ry="0" transform="matrix(1 0 0 1 443.19999999999999 304.89999999999998)" fill="rgb(247,247,247)" stroke="none" stroke-width="1" stroke-miterlimit="1"/></g><g id="edm95NugH6U96"><rect id="edm95NugH6U97" width="37.100000" height="5.400000" rx="0" ry="0" transform="matrix(1 0 0 1 443.19999999999999 365.39999999999998)" fill="rgb(247,247,247)" stroke="none" stroke-width="1" stroke-miterlimit="1"/></g><g id="edm95NugH6U98"><rect id="edm95NugH6U99" width="15.900000" height="5.400000" rx="0" ry="0" transform="matrix(1 0 0 1 424.60000000000002 385.50000000000000)" fill="rgb(247,247,247)" stroke="none" stroke-width="1" stroke-miterlimit="1"/></g><g id="edm95NugH6U100"><rect id="edm95NugH6U101" width="35.600000" height="5.400000" rx="0" ry="0" transform="matrix(1 0 0 1 408.80000000000001 406)" fill="rgb(247,247,247)" stroke="none" stroke-width="1" stroke-miterlimit="1"/></g><g id="edm95NugH6U102"><rect id="edm95NugH6U103" width="49.200000" height="5.400000" rx="0" ry="0" transform="matrix(1 0 0 1 449.80000000000001 406)" fill="rgb(247,247,247)" stroke="none" stroke-width="1" stroke-miterlimit="1"/></g><g id="edm95NugH6U104"><rect id="edm95NugH6U105" width="37.100000" height="5.400000" rx="0" ry="0" transform="matrix(1 0 0 1 381.30000000000001 385.69999999999999)" fill="rgb(247,247,247)" stroke="none" stroke-width="1" stroke-miterlimit="1"/></g><g id="edm95NugH6U106"><rect id="edm95NugH6U107" width="22" height="5.400000" rx="0" ry="0" transform="matrix(1 0 0 1 381.30000000000001 406)" fill="rgb(247,247,247)" stroke="none" stroke-width="1" stroke-miterlimit="1"/></g><g id="edm95NugH6U108"><rect id="edm95NugH6U109" width="20.800000" height="5.400000" rx="0" ry="0" transform="matrix(1 0 0 1 448 385.69999999999999)" fill="rgb(247,247,247)" stroke="none" stroke-width="1" stroke-miterlimit="1"/></g><g id="edm95NugH6U110"><rect id="edm95NugH6U111" width="20.800000" height="5.400000" rx="0" ry="0" transform="matrix(1 0 0 1 382 507)" fill="rgb(247,247,247)" stroke="none" stroke-width="1" stroke-miterlimit="1"/></g><g id="edm95NugH6U112"><rect id="edm95NugH6U113" width="37.100000" height="5.400000" rx="0" ry="0" transform="matrix(1 0 0 1 381.19999999999999 345.19999999999999)" fill="rgb(247,247,247)" stroke="none" stroke-width="1" stroke-miterlimit="1"/></g><g id="edm95NugH6U114"><rect id="edm95NugH6U115" width="37.100000" height="5.400000" rx="0" ry="0" transform="matrix(1 0 0 1 414 446.60000000000002)" fill="rgb(247,247,247)" stroke="none" stroke-width="1" stroke-miterlimit="1"/></g><g id="edm95NugH6U116"><rect id="edm95NugH6U117" width="37.100000" height="5.400000" rx="0" ry="0" transform="matrix(1 0 0 1 414.50000000000000 486.89999999999998)" fill="rgb(247,247,247)" stroke="none" stroke-width="1" stroke-miterlimit="1"/></g><g id="edm95NugH6U118"><rect id="edm95NugH6U119" width="37.100000" height="5.400000" rx="0" ry="0" transform="matrix(1 0 0 1 480.39999999999998 486.89999999999998)" fill="rgb(247,247,247)" stroke="none" stroke-width="1" stroke-miterlimit="1"/></g><g id="edm95NugH6U120"><rect id="edm95NugH6U121" width="52.900000" height="5.400000" rx="0" ry="0" transform="matrix(1 0 0 1 381.19999999999999 365.39999999999998)" fill="rgb(247,247,247)" stroke="none" stroke-width="1" stroke-miterlimit="1"/></g><g id="edm95NugH6U122"><rect id="edm95NugH6U123" width="37.100000" height="5.400000" rx="0" ry="0" transform="matrix(1 0 0 1 629.10000000000002 304.89999999999998)" fill="rgb(247,247,247)" stroke="none" stroke-width="1" stroke-miterlimit="1"/></g><g id="edm95NugH6U124"><rect id="edm95NugH6U125" width="37.100000" height="5.400000" rx="0" ry="0" transform="matrix(1 0 0 1 496.89999999999998 507)" fill="rgb(247,247,247)" stroke="none" stroke-width="1" stroke-miterlimit="1"/></g><g id="edm95NugH6U126"><rect id="edm95NugH6U127" width="24.800000" height="5.400000" rx="0" ry="0" transform="matrix(1 0 0 1 677.70000000000005 304.89999999999998)" fill="rgb(247,247,247)" stroke="none" stroke-width="1" stroke-miterlimit="1"/></g><g id="edm95NugH6U128"><rect id="edm95NugH6U129" width="24.800000" height="5.400000" rx="0" ry="0" transform="matrix(1 0 0 1 761.79999999999995 325.10000000000002)" fill="rgb(247,247,247)" stroke="none" stroke-width="1" stroke-miterlimit="1"/></g><g id="edm95NugH6U130"><rect id="edm95NugH6U131" width="47.300000" height="5.400000" rx="0" ry="0" transform="matrix(1 0 0 1 490.30000000000001 304.89999999999998)" fill="rgb(247,247,247)" stroke="none" stroke-width="1" stroke-miterlimit="1"/></g><g id="edm95NugH6U132"><rect id="edm95NugH6U133" width="47.300000" height="5.400000" rx="0" ry="0" transform="matrix(1 0 0 1 674.50000000000000 325.10000000000002)" fill="rgb(247,247,247)" stroke="none" stroke-width="1" stroke-miterlimit="1"/></g><g id="edm95NugH6U134"><rect id="edm95NugH6U135" width="47.300000" height="5.400000" rx="0" ry="0" transform="matrix(1 0 0 1 616.50000000000000 345.19999999999999)" fill="rgb(247,247,247)" stroke="none" stroke-width="1" stroke-miterlimit="1"/></g><g id="edm95NugH6U136"><rect id="edm95NugH6U137" width="47.300000" height="5.400000" rx="0" ry="0" transform="matrix(1 0 0 1 555 365.39999999999998)" fill="rgb(247,247,247)" stroke="none" stroke-width="1" stroke-miterlimit="1"/></g><g id="edm95NugH6U138"><rect id="edm95NugH6U139" width="33.600000" height="5.400000" rx="0" ry="0" transform="matrix(1 0 0 1 669.70000000000005 345.19999999999999)" fill="rgb(247,247,247)" stroke="none" stroke-width="1" stroke-miterlimit="1"/></g><g id="edm95NugH6U140"><rect id="edm95NugH6U141" width="47.300000" height="5.400000" rx="0" ry="0" transform="matrix(1 0 0 1 572.50000000000000 304.89999999999998)" fill="rgb(247,247,247)" stroke="none" stroke-width="1" stroke-miterlimit="1"/></g><g id="edm95NugH6U142"><rect id="edm95NugH6U143" width="27.700000" height="5.400000" rx="0" ry="0" transform="matrix(1 0 0 1 518.60000000000002 365.39999999999998)" fill="rgb(247,247,247)" stroke="none" stroke-width="1" stroke-miterlimit="1"/></g><g id="edm95NugH6U144"><rect id="edm95NugH6U145" width="27.700000" height="5.400000" rx="0" ry="0" transform="matrix(1 0 0 1 496.89999999999998 446.89999999999998)" fill="rgb(247,247,247)" stroke="none" stroke-width="1" stroke-miterlimit="1"/></g><g id="edm95NugH6U146"><rect id="edm95NugH6U147" width="17.300000" height="5.400000" rx="0" ry="0" transform="matrix(1 0 0 1 546.29999999999995 304.89999999999998)" fill="rgb(247,247,247)" stroke="none" stroke-width="1" stroke-miterlimit="1"/></g><g id="edm95NugH6U148"><rect id="edm95NugH6U149" width="17.300000" height="5.400000" rx="0" ry="0" transform="matrix(1 0 0 1 490.30000000000001 365.39999999999998)" fill="rgb(247,247,247)" stroke="none" stroke-width="1" stroke-miterlimit="1"/></g><g id="edm95NugH6U150"><rect id="edm95NugH6U151" width="17.300000" height="5.400000" rx="0" ry="0" transform="matrix(1 0 0 1 733.20000000000005 325.10000000000002)" fill="rgb(247,247,247)" stroke="none" stroke-width="1" stroke-miterlimit="1"/></g><g id="edm95NugH6U152"><rect id="edm95NugH6U153" width="27.100000" height="5.400000" rx="0" ry="0" transform="matrix(1 0 0 1 380.69999999999999 325.10000000000002)" fill="rgb(247,247,247)" stroke="none" stroke-width="1" stroke-miterlimit="1"/></g><g id="edm95NugH6U154"><rect id="edm95NugH6U155" width="21.400000" height="5.400000" rx="0" ry="0" transform="matrix(1 0 0 1 453 426.39999999999998)" fill="rgb(247,247,247)" stroke="none" stroke-width="1" stroke-miterlimit="1"/></g><g id="edm95NugH6U156"><rect id="edm95NugH6U157" width="8.700000" height="5.400000" rx="0" ry="0" transform="matrix(1 0 0 1 414.50000000000000 325.10000000000002)" fill="rgb(247,247,247)" stroke="none" stroke-width="1" stroke-miterlimit="1"/></g><g id="edm95NugH6U158"><rect id="edm95NugH6U159" width="72.300000" height="5.400000" rx="0" ry="0" transform="matrix(1 0 0 1 593.89999999999998 325.10000000000002)" fill="rgb(247,247,247)" stroke="none" stroke-width="1" stroke-miterlimit="1"/></g><g id="edm95NugH6U160"><rect id="edm95NugH6U161" width="72.300000" height="5.400000" rx="0" ry="0" transform="matrix(1 0 0 1 524.60000000000002 486.89999999999998)" fill="rgb(247,247,247)" stroke="none" stroke-width="1" stroke-miterlimit="1"/></g><g id="edm95NugH6U162"><rect id="edm95NugH6U163" width="8.900000" height="5.400000" rx="0" ry="0" transform="matrix(1 0 0 1 429.60000000000002 325.10000000000002)" fill="rgb(247,247,247)" stroke="none" stroke-width="1" stroke-miterlimit="1"/></g><g id="edm95NugH6U164"><rect id="edm95NugH6U165" width="23.600000" height="5.400000" rx="0" ry="0" transform="matrix(1 0 0 1 563.60000000000002 325.10000000000002)" fill="rgb(247,247,247)" stroke="none" stroke-width="1" stroke-miterlimit="1"/></g><g id="edm95NugH6U166"><rect id="edm95NugH6U167" width="23.600000" height="5.400000" rx="0" ry="0" transform="matrix(1 0 0 1 587.29999999999995 345.19999999999999)" fill="rgb(247,247,247)" stroke="none" stroke-width="1" stroke-miterlimit="1"/></g><g id="edm95NugH6U168"><rect id="edm95NugH6U169" width="23.600000" height="5.400000" rx="0" ry="0" transform="matrix(1 0 0 1 465.69999999999999 507)" fill="rgb(247,247,247)" stroke="none" stroke-width="1" stroke-miterlimit="1"/></g><g id="edm95NugH6U170"><rect id="edm95NugH6U171" width="50.300000" height="5.400000" rx="0" ry="0" transform="matrix(1 0 0 1 507.10000000000002 325.10000000000002)" fill="rgb(247,247,247)" stroke="none" stroke-width="1" stroke-miterlimit="1"/></g><g id="edm95NugH6U172"><rect id="edm95NugH6U173" width="29.400000" height="5.400000" rx="0" ry="0" transform="matrix(1 0 0 1 460.19999999999999 446.89999999999998)" fill="rgb(247,247,247)" stroke="none" stroke-width="1" stroke-miterlimit="1"/></g><g id="edm95NugH6U174"><rect id="edm95NugH6U175" width="14.700000" height="5.400000" rx="0" ry="0" transform="matrix(1 0 0 1 458.39999999999998 486.89999999999998)" fill="rgb(247,247,247)" stroke="none" stroke-width="1" stroke-miterlimit="1"/></g><g id="edm95NugH6U176"><rect id="edm95NugH6U177" width="17.300000" height="5.400000" rx="0" ry="0" transform="matrix(1 0 0 1 482.60000000000002 325.10000000000002)" fill="rgb(247,247,247)" stroke="none" stroke-width="1" stroke-miterlimit="1"/></g><g id="edm95NugH6U178"><rect id="edm95NugH6U179" width="17.300000" height="5.400000" rx="0" ry="0" transform="matrix(1 0 0 1 424.39999999999998 345.19999999999999)" fill="rgb(247,247,247)" stroke="none" stroke-width="1" stroke-miterlimit="1"/></g><g id="edm95NugH6U180"><rect id="edm95NugH6U181" width="17.300000" height="5.400000" rx="0" ry="0" transform="matrix(1 0 0 1 427.80000000000001 426.39999999999998)" fill="rgb(247,247,247)" stroke="none" stroke-width="1" stroke-miterlimit="1"/></g><g id="edm95NugH6U182"><rect id="edm95NugH6U183" width="30.200000" height="5.400000" rx="0" ry="0" transform="matrix(1 0 0 1 445.89999999999998 325.10000000000002)" fill="rgb(247,247,247)" stroke="none" stroke-width="1" stroke-miterlimit="1" stroke-dashoffset="71.200000" stroke-dasharray="71,20"/></g></g></g><g id="edm95NugH6U184"><g id="edm95NugH6U185"><g id="edm95NugH6U186"><path id="edm95NugH6U187" d="M699.100000,365.600000C699.100000,365.600000,707.900000,380.500000,711.600000,382.900000C716.600000,386.200000,713.500000,389.500000,711.100000,389.600000C708.700000,389.600000,696.500000,390.500000,693.800000,387.400000C691.100000,384.300000,689.800000,375.200000,687.300000,372.800000C684.800000,370.400000,682.200000,360.900000,688.500000,358.600000C694,356.500000,699.100000,365.600000,699.100000,365.600000Z" fill="rgb(255,183,80)" stroke="none" stroke-width="1" stroke-miterlimit="1"/></g></g></g><g id="edm95NugH6U188"><g id="edm95NugH6U189"><g id="edm95NugH6U190"><path id="edm95NugH6U191" d="M695.200000,359.100000C695.200000,359.100000,705.300000,376.600000,707,379.100000C708.700000,381.700000,703.700000,381.700000,700.600000,380.500000C697.500000,379.300000,689.700000,366.800000,688.600000,364.500000C687.300000,361.800000,688.400000,358.700000,688.400000,358.700000L695.200000,359.100000Z" fill="rgb(255,227,202)" stroke="none" stroke-width="1" stroke-miterlimit="1"/></g></g></g><g id="edm95NugH6U192"><g id="edm95NugH6U193"><g id="edm95NugH6U194"><polygon id="edm95NugH6U195" points="685,368.400000 687.400000,386.300000 688.600000,386.400000 688.200000,373.500000" fill="rgb(255,183,80)" stroke="none" stroke-width="1" stroke-miterlimit="1"/></g></g></g><g id="edm95NugH6U196"><g id="edm95NugH6U197"><g id="edm95NugH6U198"><path id="edm95NugH6U199" d="M611.800000,365.600000C611.800000,365.600000,620.600000,380.500000,624.300000,382.900000C629.300000,386.200000,626.200000,389.500000,623.800000,389.600000C621.400000,389.600000,609.200000,390.500000,606.500000,387.400000C603.800000,384.300000,602.500000,375.200000,600,372.800000C597.500000,370.400000,594.800000,360.600000,601.200000,358.600000C606.800000,356.800000,611.800000,365.600000,611.800000,365.600000Z" fill="rgb(255,183,80)" stroke="none" stroke-width="1" stroke-miterlimit="1"/></g></g></g><g id="edm95NugH6U200"><g id="edm95NugH6U201"><g id="edm95NugH6U202"><path id="edm95NugH6U203" d="M608.500000,359.100000C608.500000,359.100000,618,376.500000,619.800000,379.100000C621.500000,381.700000,616.500000,381.700000,613.400000,380.500000C610.300000,379.300000,602.500000,366.800000,601.400000,364.500000C600.100000,361.800000,601.200000,358.700000,601.200000,358.700000L608.500000,359.100000Z" fill="rgb(255,227,202)" stroke="none" stroke-width="1" stroke-miterlimit="1"/></g></g></g><g id="edm95NugH6U204"><g id="edm95NugH6U205"><g id="edm95NugH6U206"><polygon id="edm95NugH6U207" points="597.800000,368.400000 600.100000,386.300000 601.400000,386.400000 601,373.500000" fill="rgb(255,183,80)" stroke="none" stroke-width="1" stroke-miterlimit="1"/></g></g></g><g id="edm95NugH6U208"><g id="edm95NugH6U209"><g id="edm95NugH6U210"><path id="edm95NugH6U211" d="M572.800000,229.900000L652.400000,266.200000C652.400000,266.200000,661.300000,269.100000,662.300000,279C665.400000,309.800000,688.400000,358.600000,688.400000,358.600000C695.800000,362.200000,695.200000,359.100000,695.200000,359.100000C690.500000,344.100000,684.900000,282.500000,682.800000,257.800000C682.400000,252.600000,682.100000,249,682,247.800000C682,247,681.100000,246,679.600000,244.800000C668.700000,235.900000,623.700000,217.600000,623.700000,217.600000C590.200000,216.700000,572.800000,229.900000,572.800000,229.900000Z" fill="rgb(255,227,202)" stroke="none" stroke-width="1" stroke-miterlimit="1"/></g></g></g><g id="edm95NugH6U212"><g id="edm95NugH6U213"><g id="edm95NugH6U214"><path id="edm95NugH6U215" d="M557.800000,245.500000C560.300000,267,591,264.600000,591,264.600000L628.200000,264.600000C628.200000,264.600000,618.400000,286.400000,614.600000,304.700000C610.600000,324.200000,601.100000,358.600000,601.100000,358.600000C601.100000,358.600000,601.700000,359.800000,608.500000,359.100000C608.500000,359.100000,637.700000,300.900000,648.900000,286.200000C651.300000,283.100000,658.200000,265.900000,659.400000,255.700000C659.800000,252.300000,659.600000,249.600000,658.300000,248.500000C657,247.400000,654,245.400000,650.100000,242.900000C638.400000,235.500000,618.200000,224.200000,606.900000,221.700000C591.800000,218.300000,567.900000,211.900000,567.900000,211.900000C567.900000,211.900000,555.300000,224,557.800000,245.500000Z" fill="rgb(255,227,202)" stroke="none" stroke-width="1" stroke-miterlimit="1"/></g></g></g><g id="edm95NugH6U216"><path id="edm95NugH6U217" d="M583.100000,79.700000C583.100000,79.700000,577.500000,69.100000,580.200000,57.900000C582.900000,46.600000,593.400000,35.400000,608.700000,40.600000C624,45.800000,636.400000,57.600000,627.200000,71.400000C618,85.100000,635.500000,91.400000,631,97.900000C626.500000,104.400000,628.200000,111.300000,630.100000,112.800000C632,114.300000,638.100000,119.700000,637.400000,126.200000C636.700000,132.600000,607.700000,107.500000,607.700000,107.500000C607.700000,107.500000,592,75.600000,583.100000,79.700000Z" fill="rgb(14,83,140)" stroke="none" stroke-width="1" stroke-miterlimit="1"/></g><g id="edm95NugH6U218"><path id="edm95NugH6U219" d="M629.800000,214.900000C629.800000,214.900000,627.500000,226.100000,568,212C568,212,587.900000,205.400000,629.800000,214.900000Z" fill="rgb(235,71,71)" stroke="none" stroke-width="1" stroke-miterlimit="1"/></g><g id="edm95NugH6U220"><g id="edm95NugH6U221"><path id="edm95NugH6U222" d="M567.300000,215.100000C566.400000,216.900000,565.500000,218.600000,564.500000,220.400000C586.200000,221,608,221.700000,629.700000,222.300000C626.300000,210.800000,627.400000,195.200000,628,183.400000C628.700000,168.900000,636.700000,158.900000,635.900000,144.300000C640.200000,145,640.900000,145.100000,645.200000,145.800000C638.600000,127,636.400000,117.700000,615.900000,110.500000C609.200000,108.100000,604.900000,107.700000,597.700000,108.300000C574,110.300000,566.900000,110.500000,555.200000,132C573.400000,134.900000,570.400000,141.400000,575.900000,159.600000C578.600000,168.400000,581.400000,178.300000,580,187.600000C578.600000,196.700000,567.300000,206.800000,567.300000,215.100000Z" fill="rgb(255,255,255)" stroke="none" stroke-width="1" stroke-miterlimit="1"/></g></g><g id="edm95NugH6U223"><g id="edm95NugH6U224"><path id="edm95NugH6U225" d="M605.100000,115C595.400000,113.200000,597.500000,107.800000,597.500000,107.800000C597.500000,107.800000,597.900000,104.800000,598.100000,100.900000C598.100000,99.900000,598.200000,98.900000,598.200000,97.800000C598.200000,96.200000,598.100000,94.600000,597.900000,93C597.100000,86.500000,615.500000,90.400000,615.500000,90.400000C615.500000,90.400000,614.400000,103.600000,617,107.500000C619.500000,111.500000,614.800000,116.900000,605.100000,115Z" fill="rgb(255,227,202)" stroke="none" stroke-width="1" stroke-miterlimit="1"/></g></g><g id="edm95NugH6U226"><g id="edm95NugH6U227"><path id="edm95NugH6U228" d="M586.600000,107.800000C586.600000,107.800000,606.200000,130.400000,613.400000,135.600000C613.400000,135.600000,621.700000,128.100000,616.600000,108.300000C616.600000,108.300000,607.200000,103.500000,586.600000,107.800000Z" fill="rgb(255,227,202)" stroke="none" stroke-width="1" stroke-miterlimit="1"/></g></g><g id="edm95NugH6U229"><path id="edm95NugH6U230" d="M587.200000,53.400000C587.200000,53.400000,577,73,587.100000,91.500000C597.200000,110,617,83.400000,618.200000,80.300000C619.500000,77.200000,626.300000,59.500000,612.800000,54.200000C599.300000,48.800000,590.100000,48.100000,587.200000,53.400000Z" fill="rgb(255,227,202)" stroke="none" stroke-width="1" stroke-miterlimit="1"/></g><g id="edm95NugH6U231"><path id="edm95NugH6U232" d="M606.800000,93.500000C606.800000,93.500000,605,97.400000,598.100000,100.900000C598.100000,99.900000,598.200000,98.900000,598.200000,97.800000C598.200000,97.800000,602.900000,97.300000,606.800000,93.500000Z" fill="rgb(252,210,177)" stroke="none" stroke-width="1" stroke-miterlimit="1"/></g><g id="edm95NugH6U233"><path id="edm95NugH6U234" d="M504.100000,197.500000C504.100000,197.500000,499.300000,199.600000,497,198.700000C494.700000,197.700000,491.200000,197.500000,490.100000,197.500000C488.600000,197.500000,483.900000,195.800000,484,197.700000C484.100000,199.500000,491.600000,200.800000,493.100000,201.400000C494.600000,202,488.500000,205.300000,487.900000,206.800000C487.300000,208.300000,494.300000,218.100000,498.200000,215.300000C502.100000,212.500000,504.200000,206.900000,505,206.500000C505.800000,206.100000,507.900000,204.600000,507.900000,204.600000L504.100000,197.500000Z" fill="rgb(255,227,202)" stroke="none" stroke-width="1" stroke-miterlimit="1"/></g><g id="edm95NugH6U235"><path id="edm95NugH6U236" d="M488.700000,205.900000C488.700000,205.900000,477.400000,215.300000,477.200000,216.600000C477,217.900000,477.600000,218.500000,478.700000,217.600000C479.800000,216.800000,489.900000,208.800000,489.900000,208.800000C489.900000,208.800000,478.600000,222.200000,478.200000,223.200000C478,223.800000,479.100000,225,479.700000,224.600000C480.300000,224.200000,492.400000,211.600000,492.400000,211.600000C492.400000,211.600000,481.800000,224.100000,481.800000,225.100000C481.700000,225.900000,483,226.800000,483.900000,225.900000C484.800000,225,495.300000,214,495.300000,214C495.300000,214,488.200000,223.600000,488.700000,224.500000C489,225,489.900000,226.100000,491.600000,223.600000C493.300000,221.100000,498.100000,215.500000,498.100000,215.500000L488.700000,205.900000Z" fill="rgb(255,227,202)" stroke="none" stroke-width="1" stroke-miterlimit="1"/></g><g id="edm95NugH6U237"><g id="edm95NugH6U238"><path id="edm95NugH6U239" d="M624.300000,264.500000L591,264.500000C591,264.500000,560.300000,267,557.800000,245.400000C555.300000,223.900000,567.900000,211.900000,567.900000,211.900000C567.900000,211.900000,584.100000,216.200000,598.300000,219.600000C605.400000,218.100000,613.900000,217.100000,623.900000,217.400000C623.900000,217.400000,683.900000,237.200000,682.100000,247.700000C682.100000,247.800000,657,234.400000,624.300000,264.500000Z" fill="rgb(14,83,140)" stroke="none" stroke-width="1" stroke-miterlimit="1"/></g></g><g id="edm95NugH6U240"><polygon id="edm95NugH6U241" points="602.600000,227.300000 666.200000,226.300000 634.100000,242.600000" fill="rgb(242,242,242)" stroke="none" stroke-width="1" stroke-miterlimit="1"/></g><g id="edm95NugH6U242"><path id="edm95NugH6U243" d="M622.400000,219.100000C622.400000,219.100000,608.100000,224.600000,590.600000,219.600000L589.800000,213.100000L625.900000,215.100000L622.400000,219.100000Z" fill="rgb(255,255,255)" stroke="none" stroke-width="1" stroke-miterlimit="1"/></g><g id="edm95NugH6U244"><polygon id="edm95NugH6U245" points="634.100000,242.600000 602.600000,230.400000 602.600000,227.300000 636.600000,239.500000" fill="rgb(211,211,211)" stroke="none" stroke-width="1" stroke-miterlimit="1"/></g><g id="edm95NugH6U246"><g id="edm95NugH6U247"><path id="edm95NugH6U248" d="M622.100000,222.200000C621.900000,224.500000,624.300000,226.200000,626.500000,225.300000L630.200000,223.700000C631.300000,223.200000,632,222.100000,631.800000,220.900000C630.300000,211.300000,627,173.900000,631.800000,167.400000C633.600000,165,634.700000,162.900000,635.300000,161.100000C638.500000,169.300000,642.400000,179.900000,644,185.600000L674,225.600000L684.100000,228.200000C671.500000,197.900000,661.400000,181.900000,661.400000,181.900000C659.400000,176.600000,653.800000,160.600000,648.800000,146.400000C645.600000,137.400000,642.800000,129.100000,641.200000,124.700000C640.400000,122.400000,638.900000,120.500000,636.800000,119.300000C632.100000,116.500000,624.400000,112.100000,617.400000,108.700000C617.400000,108.700000,617.300000,108.700000,617.300000,108.700000C617.100000,108.600000,616.900000,108.500000,616.600000,108.400000C616.600000,108.400000,616.600000,108.400000,616.600000,108.400000C616.600000,108.400000,616.600000,108.400000,616.600000,108.400000C630,128.500000,624.800000,185.600000,622.100000,222.200000C622.100000,222.100000,622.100000,222.100000,622.100000,222.200000Z" fill="rgb(15,4,76)" stroke="none" stroke-width="1" stroke-miterlimit="1"/></g><g id="edm95NugH6U249"><path id="edm95NugH6U250" d="M572.500000,110C568.200000,110.700000,557.600000,121,552,131.400000C545.600000,143.300000,539,156.800000,534.100000,161.200000C525.100000,169.400000,499.800000,198.300000,498.600000,197.600000C498.100000,197.300000,505.500000,206.200000,506.500000,206.600000C507,206.800000,548,171.200000,552,165.800000C555.700000,160.700000,565.700000,139.100000,568.700000,139.600000C568.700000,139.600000,568.700000,139.600000,568.700000,139.600000C568.700000,139.600000,568.700000,139.600000,568.700000,139.600000C568.900000,140.100000,572.600000,148,576,159.500000C576.100000,159.700000,576.100000,159.900000,576.200000,160.100000C578.600000,168.100000,578.400000,176.900000,577.100000,186.700000C576.100000,194.100000,570.600000,206.200000,567.300000,212.100000C566.900000,212.800000,567,214.200000,567.400000,215.200000L567.400000,215.200000C567.700000,215.800000,568,216.300000,568.500000,216.500000L580.600000,221L583.400000,222C585.400000,222.800000,587.600000,222.400000,589.200000,221.200000C590.500000,220.300000,591.500000,218.800000,591.700000,217C594.400000,196.400000,597.800000,175.300000,600.500000,167.400000C612.400000,132.600000,595.900000,106.400000,595.900000,106.400000C595.900000,106.400000,576.300000,108.600000,572.500000,110Z" fill="rgb(15,4,76)" stroke="none" stroke-width="1" stroke-miterlimit="1"/></g></g><g id="edm95NugH6U251"><polygon id="edm95NugH6U252" points="634.100000,242.600000 653,191 713.900000,192 695.900000,239.600000" fill="rgb(15,4,76)" stroke="none" stroke-width="1" stroke-miterlimit="1"/></g><g id="edm95NugH6U253"><path id="edm95NugH6U254" d="M672.500000,213.800000C670.600000,217.500000,671.200000,221.600000,673.800000,222.800000C676.400000,224.100000,679.900000,222.100000,681.800000,218.400000C683.700000,214.700000,683.100000,210.600000,680.500000,209.400000C677.900000,208.100000,674.300000,210.100000,672.500000,213.800000Z" fill="rgb(242,240,240)" stroke="none" stroke-width="1" stroke-miterlimit="1"/></g><path id="edm95NugH6U255" d="M635.500000,116.300000C631,109.500000,627.800000,104.100000,627.400000,94.400000C627.100000,88,625.700000,79.300000,621.300000,75C625.900000,63,620.500000,59.400000,618.300000,55.500000C615.600000,50.600000,595.600000,38.800000,587.700000,51.200000C579.800000,63.500000,582.600000,76.400000,582.600000,76.400000C583.400000,69.600000,590.400000,60.400000,590.400000,60.400000C591.500000,67.500000,606.200000,79.100000,612.600000,83.800000C612.500000,83.900000,612.400000,84.100000,612.400000,84.200000C608.800000,89.400000,613.300000,94.600000,614.100000,100.100000C614.900000,105.600000,599,120.400000,616.700000,127.800000C634.400000,135.300000,640,123,635.500000,116.300000Z" fill="rgb(14,83,140)" stroke="none" stroke-width="1" stroke-miterlimit="1"/><g id="edm95NugH6U256"><g id="edm95NugH6U257"><path id="edm95NugH6U258" d="M313.600000,698.800000C313.600000,698.800000,313.200000,703,293.600000,703C274,703,245.500000,697.900000,245.500000,697.900000L291,693.500000C291,693.500000,308.500000,692.600000,313.600000,698.800000Z" fill="rgb(14,83,140)" stroke="none" stroke-width="1" stroke-miterlimit="1"/><path id="edm95NugH6U259" d="M263.700000,700.300000C252.600000,700.300000,247.900000,706,243.500000,707.800000C239.100000,709.600000,234.700000,712.300000,234.700000,712.200000C237.200000,707.300000,240.700000,707.200000,242.500000,705.600000C244.300000,704,243.800000,704.800000,239.900000,704.500000C237.700000,704.300000,233.700000,708.400000,230.900000,710.700000C228.400000,712.600000,226.900000,712.800000,226.900000,712.800000C226.900000,712.800000,229.800000,708.700000,233.400000,705.400000C237.800000,701.400000,243.300000,698.100000,244.600000,697.500000C247,696.500000,254.400000,696.300000,259.600000,697C265.600000,697.800000,271.700000,700.300000,263.700000,700.300000Z" fill="rgb(14,83,140)" stroke="none" stroke-width="1" stroke-miterlimit="1"/><path id="edm95NugH6U260" d="M245.300000,697.700000C245.300000,697.700000,236.800000,699.900000,235.300000,701.100000C234.300000,701.900000,229.900000,706.600000,229.900000,706.600000C229.900000,706.600000,233.100000,706.100000,234.900000,704.300000C236.800000,702.400000,245.300000,697.700000,245.300000,697.700000Z" fill="rgb(14,83,140)" stroke="none" stroke-width="1" stroke-miterlimit="1"/></g><path id="edm95NugH6U261" d="M297.500000,690.200000C297.500000,690.200000,318.900000,691.600000,317.400000,704.800000C316.600000,712.300000,311.700000,714.900000,305.200000,714.300000C293.200000,713.300000,279.600000,711.500000,279.600000,711.500000L273.500000,691L297.500000,690.200000Z" fill="rgb(14,83,140)" stroke="none" stroke-width="1" stroke-miterlimit="1"/><path id="edm95NugH6U262" d="M302,692L323,624.300000C323,624.300000,326.100000,614.400000,331.200000,616.200000C338.500000,618.900000,334.900000,627,334.300000,631.800000C333,641.600000,333.900000,645.900000,327.100000,669.500000C322.900000,684.100000,319.300000,700.900000,315.700000,710.500000C313.200000,717.100000,308.900000,707.600000,302.400000,705C290.200000,700.100000,302,692,302,692Z" fill="rgb(14,83,140)" stroke="none" stroke-width="1" stroke-miterlimit="1"/></g><path id="edm95NugH6U263" d="M303.600000,587.500000C307.700000,599.300000,320.400000,605.400000,332.100000,601.100000C343.700000,596.800000,349.900000,583.700000,345.800000,571.900000C341.700000,560.100000,329,554,317.300000,558.300000C305.700000,562.600000,299.500000,575.700000,303.600000,587.500000Z" fill="rgb(14,83,140)" stroke="none" stroke-width="1" stroke-miterlimit="1"/><path id="edm95NugH6U264" d="M280.600000,588.600000C287,598.200000,299.800000,600.600000,309.100000,594L307.800000,582.700000C317.100000,576,319.400000,562.800000,313,553.200000L308.600000,546.700000C302.200000,537.100000,289.400000,534.700000,280.100000,541.300000L275.900000,544.300000C266.600000,551,264.300000,564.200000,270.700000,573.800000L280.600000,588.600000Z" fill="rgb(14,83,140)" stroke="none" stroke-width="1" stroke-miterlimit="1"/><path id="edm95NugH6U265" d="M272.200000,557.100000C273.300000,558.700000,274.500000,560.200000,275.900000,561.700000C285.100000,571.700000,297.400000,575.500000,305.200000,571.400000C308.800000,576.300000,312.900000,580.200000,316.600000,583.200000C320.900000,586.700000,331.900000,588.100000,331.900000,588.100000C338.300000,595.100000,314.300000,636,312.600000,635.800000C309.100000,635.500000,304.600000,612.900000,307.900000,604.700000C309.400000,601,311.800000,596.600000,311.100000,594.600000C308.600000,587.700000,305.100000,588.900000,305.100000,588.900000C305.100000,588.900000,300.500000,594.300000,296.900000,594.100000C293.200000,593.800000,286.800000,588,286.500000,587.900000C285.400000,587,284.400000,585.900000,283.500000,584.600000L273.900000,570.200000C271.400000,566.200000,270.800000,561.400000,272.200000,557.100000Z" fill="rgb(255,227,202)" stroke="none" stroke-width="1" stroke-miterlimit="1"/><path id="edm95NugH6U266" d="M345.600000,729.400000C345.600000,729.400000,337.800000,738.800000,335.400000,739.800000C332.200000,741.200000,322.400000,738.200000,322.400000,738.200000C322.400000,738.200000,319.800000,695.100000,316.800000,678.300000C313.800000,661.500000,309.400000,657.100000,309.200000,651.800000C308.900000,643.300000,301.800000,639.900000,303,633.300000C304.200000,626.700000,306.300000,603.100000,307,606.200000C313.100000,633,320.600000,610.700000,322.300000,607.200000C323.200000,605.300000,345.600000,729.400000,345.600000,729.400000Z" fill="rgb(242,240,240)" stroke="none" stroke-width="1" stroke-miterlimit="1"/><path id="edm95NugH6U267" d="M310.100000,598.200000C310.100000,598.200000,300.600000,608.600000,301.300000,612.700000C301.900000,616.800000,297.200000,629.600000,301.900000,647.400000C307.200000,667.700000,310,681.500000,311,694.800000C312,708.100000,307.500000,720.300000,309.300000,736.600000C310.700000,749.400000,313.600000,750.100000,313.600000,750.100000C313.600000,750.100000,319.300000,751.500000,323.300000,746.500000C327.300000,741.600000,321.300000,698,319.300000,687.200000C317.300000,676.300000,310.900000,650.900000,309.200000,643.400000C307.100000,634.200000,307.500000,624.800000,307.600000,622.100000C308.100000,612.600000,309.300000,606.700000,310.300000,603.100000C310.400000,602.600000,310.900000,597,310.100000,598.200000Z" fill="rgb(14,83,140)" stroke="none" stroke-width="1" stroke-miterlimit="1"/><path id="edm95NugH6U268" d="M326.700000,610.400000C331.900000,625.400000,348.100000,633.100000,362.900000,627.600000C377.700000,622.100000,385.500000,605.500000,380.300000,590.500000C375.100000,575.500000,358.900000,567.800000,344.100000,573.300000C329.300000,578.700000,321.500000,595.400000,326.700000,610.400000Z" fill="rgb(14,83,140)" stroke="none" stroke-width="1" stroke-miterlimit="1"/><polygon id="edm95NugH6U269" points="275.800000,868.200000 281.100000,910.500000 258.100000,921.400000 245.400000,924.200000 268,906.700000 260.600000,868.500000" fill="rgb(252,186,162)" stroke="none" stroke-width="1" stroke-miterlimit="1"/><path id="edm95NugH6U270" d="M282.600000,916.900000L277.600000,918.200000L274.200000,915.100000L255.800000,924.300000L239.500000,928.200000C239.500000,928.200000,239.300000,926.900000,239.800000,926.200000C241.800000,923.500000,253.300000,917.600000,253.300000,917.600000C253.300000,917.600000,253.500000,921.500000,255.100000,921.600000C256.700000,921.700000,270.800000,914.300000,274.100000,912.300000C279.700000,908.800000,280.800000,906.500000,281.200000,906.800000C282.400000,907.400000,282.600000,916.900000,282.600000,916.900000Z" fill="rgb(14,83,140)" stroke="none" stroke-width="1" stroke-miterlimit="1"/><polygon id="edm95NugH6U271" points="220.300000,809.400000 202,845.400000 176.800000,844.200000 164.200000,840.500000 192.100000,835.800000 207.300000,805" fill="rgb(252,186,162)" stroke="none" stroke-width="1" stroke-miterlimit="1"/><path id="edm95NugH6U272" d="M200.500000,851.800000L195.500000,850.600000L193.900000,846.200000L171.200000,845.900000L157.700000,842.700000C157.700000,842.700000,159.300000,840.900000,160.300000,840.400000C163.300000,839.100000,174,838.500000,174,838.500000C174,838.500000,172.900000,841.600000,174.300000,842.400000C175.700000,843.300000,191.300000,843.800000,195.100000,843.500000C201.700000,843,203.600000,841.600000,203.800000,842C204.500000,843.400000,200.500000,851.800000,200.500000,851.800000Z" fill="rgb(14,83,140)" stroke="none" stroke-width="1" stroke-miterlimit="1"/><path id="edm95NugH6U273" d="M353.800000,701.700000L340.200000,707.800000L340.300000,726.500000L246.600000,711.200000C246.600000,711.200000,237.700000,708.300000,232,723C223.900000,743.800000,203.300000,808.500000,203.300000,808.500000L216.300000,822.600000L257.200000,749.500000C257.200000,749.500000,341,790.200000,368.600000,781.400000C379.200000,778,387.300000,758.600000,385.800000,739C384.600000,723.600000,381.600000,709.500000,381.600000,709.500000L353.800000,701.700000Z" fill="rgb(255,183,80)" stroke="none" stroke-width="1" stroke-miterlimit="1"/><path id="edm95NugH6U274" d="M341.900000,781L274.800000,776L280.600000,883.200000L260.800000,883.900000L246.200000,758.300000C246.200000,758.300000,250.100000,739.600000,262.900000,742.400000C275.800000,745.300000,306.800000,769.900000,341.900000,781Z" fill="rgb(255,183,80)" stroke="none" stroke-width="1" stroke-miterlimit="1"/><path id="edm95NugH6U275" d="M387.100000,807.900000C387.100000,807.900000,351.900000,768.400000,342.800000,746.100000C331.900000,719.400000,332.800000,685.900000,330.800000,674.800000C327.100000,654.400000,322.600000,614.800000,321.800000,609.900000C320.900000,605,324,599.500000,324,599.500000C324,599.500000,321.700000,584.700000,328.300000,586.300000C337.800000,588.600000,347.200000,593.800000,350.500000,595.400000C356.700000,598.200000,369.400000,672.800000,370.100000,676.400000C372.700000,689.400000,382.200000,701.200000,389,713.300000C405,742,409.100000,775.900000,409.100000,775.900000C409.100000,775.900000,407.100000,800.700000,387.100000,807.900000Z" fill="rgb(42,148,244)" stroke="none" stroke-width="1" stroke-miterlimit="1"/><g id="edm95NugH6U276"><path id="edm95NugH6U277" d="M350.800000,704.600000C350.800000,704.600000,350.500000,709.400000,328.100000,708.300000C305.700000,707.100000,272.900000,699.600000,272.900000,699.600000L324.800000,697.200000C324.800000,697.200000,344.700000,697.300000,350.800000,704.600000Z" fill="rgb(255,227,202)" stroke="none" stroke-width="1" stroke-miterlimit="1"/><path id="edm95NugH6U278" d="M290.500000,702.200000C279.800000,702,275.200000,707.500000,271,709.200000C266.800000,710.900000,262.500000,713.400000,262.500000,713.400000C264.900000,708.700000,268.300000,708.600000,270.100000,707.100000C271.800000,705.600000,271.400000,706.400000,267.600000,706C265.400000,705.800000,261.600000,709.700000,258.900000,711.900000C256.500000,713.800000,255,713.900000,255,713.900000C255,713.900000,257.800000,709.900000,261.300000,706.700000C265.600000,702.900000,270.800000,699.700000,272.100000,699.200000C274.400000,698.300000,281.500000,698.200000,286.600000,699C292.300000,699.800000,298.200000,702.400000,290.500000,702.200000Z" fill="rgb(255,227,202)" stroke="none" stroke-width="1" stroke-miterlimit="1"/><path id="edm95NugH6U279" d="M272.600000,699.300000C272.600000,699.300000,264.400000,701.300000,263,702.400000C262,703.200000,257.800000,707.700000,257.800000,707.700000C257.800000,707.700000,260.800000,707.200000,262.600000,705.500000C264.400000,703.900000,272.600000,699.300000,272.600000,699.300000Z" fill="rgb(255,227,202)" stroke="none" stroke-width="1" stroke-miterlimit="1"/></g><path id="edm95NugH6U280" d="M332.900000,699.300000L366.100000,681.800000C366.100000,681.800000,366.200000,703,366.400000,711.100000C366.600000,719.200000,370,730.600000,363.600000,732.300000C357.200000,734,353.900000,733.100000,360.500000,737C367.100000,740.800000,365.600000,744.800000,363.100000,748.100000C360.600000,751.400000,371.500000,785,368.900000,786.900000C358.600000,773.900000,347.500000,757.800000,342.700000,746.100000C336.600000,730.900000,334.200000,713.500000,332.900000,699.300000Z" fill="rgb(14,83,140)" stroke="none" stroke-width="1" stroke-miterlimit="1"/><path id="edm95NugH6U281" d="M343.600000,690.800000L342.300000,623.200000C342.300000,623.200000,342.400000,602.100000,342.800000,595.900000C343.200000,589.500000,354.100000,597,354.100000,597C354.100000,597,369.400000,617.700000,369.700000,667.600000C369.900000,701,368.100000,718.400000,352.700000,717C338.400000,715.700000,322.100000,713.500000,322.100000,713.500000L315,695L343.600000,690.800000Z" fill="rgb(42,148,244)" stroke="none" stroke-width="1" stroke-miterlimit="1"/><g id="edm95NugH6U282"><polygon id="edm95NugH6U283" points="340.200000,726.500000 225.900000,712.200000 226.200000,709.800000 340.500000,724.100000" fill="rgb(211,211,211)" stroke="none" stroke-width="1" stroke-miterlimit="1"/><path id="edm95NugH6U284" d="M290.100000,717.700000C289.900000,719.600000,288.400000,721,286.800000,720.800000L228.200000,713.500000C226.600000,713.300000,224.600000,711.800000,223.200000,706.800000L200.600000,648.300000C200.900000,645.900000,202.800000,644.700000,204.400000,645.300000L264.300000,654.700000C265.900000,655.300000,267,656.700000,267.600000,659.300000L290.100000,717.700000Z" fill="rgb(211,211,211)" stroke="none" stroke-width="1" stroke-miterlimit="1"/><path id="edm95NugH6U285" d="M282.700000,719.300000L283.300000,719.400000L340.500000,726.600000C338.300000,727.500000,334.800000,727.800000,330.900000,727.300000L283,721.300000L282.400000,721.200000L234.500000,715.200000C230.600000,714.700000,227.300000,713.500000,225.300000,712.200000L282.700000,719.300000Z" fill="rgb(211,211,211)" stroke="none" stroke-width="1" stroke-miterlimit="1"/></g><path id="edm95NugH6U286" d="M343.600000,690.800000L342.300000,623.200000C342.300000,623.200000,343.300000,617.500000,345.300000,612.400000C345.800000,619.800000,349.200000,673.100000,349.600000,680.100000C350.100000,687.700000,356.300000,688.500000,357.600000,691C359,693.400000,357.800000,693.900000,353.200000,693C348.700000,692,350.300000,692.800000,351.300000,695.200000C352.300000,697.700000,349.800000,697,341,693.800000C334.600000,691.500000,322.300000,693.800000,316.100000,695.200000L343.600000,690.800000Z" fill="rgb(14,83,140)" stroke="none" stroke-width="1" stroke-miterlimit="1"/><path id="edm95NugH6U287" d="M738.800000,524.900000C727.800000,527.800000,707.500000,538,703.200000,555.500000C696.800000,581.800000,709.600000,620.300000,689.400000,658.100000C682.900000,670.100000,801.100000,686.300000,801.100000,686.300000L823.900000,553.500000C823.900000,553.500000,795.400000,524.700000,789.600000,522.700000C777.500000,518.700000,760.800000,519.100000,738.800000,524.900000Z" fill="rgb(204,233,255)" stroke="none" stroke-width="1" stroke-miterlimit="1"/><path id="edm95NugH6U288" d="M824,553.600000C828.100000,564.200000,838.500000,627.300000,826.900000,642.200000C825.600000,643.900000,832.900000,646.600000,831.600000,654.400000C831.400000,655.700000,829.200000,662,829.200000,662L819.800000,664.500000L799.300000,640.800000C799.300000,640.800000,807.600000,627.900000,818.500000,579C821.700000,564.600000,823.100000,551.200000,824,553.600000Z" fill="rgb(42,148,244)" stroke="none" stroke-width="1" stroke-miterlimit="1"/><path id="edm95NugH6U289" d="M746.400000,629C746.400000,629,756.300000,655.100000,780.200000,662.100000C784.300000,663.300000,786.900000,667.900000,784.900000,669.400000C782.300000,671.300000,778.900000,671.700000,772.900000,671.700000C760.400000,671.700000,743.400000,667.700000,731.700000,655.900000C714.300000,638.500000,708.800000,630.500000,710.600000,621.800000C712.200000,612.900000,746.400000,629,746.400000,629Z" fill="rgb(252,210,177)" stroke="none" stroke-width="1" stroke-miterlimit="1"/><path id="edm95NugH6U290" d="M706.600000,546.700000C701.500000,555.300000,698.600000,569.100000,698.700000,588.900000C698.700000,604.200000,711.500000,629.300000,713.400000,637C713.700000,638.300000,714.500000,643.800000,714.500000,643.800000L728.600000,658.200000L756.900000,638.300000L748.300000,624.600000L745.700000,624.900000C745.700000,624.900000,744.100000,617.300000,744.500000,614.400000C744.900000,611.500000,736.700000,572,732.600000,546.700000C730.300000,532,711.600000,538.200000,706.600000,546.700000Z" fill="rgb(42,148,244)" stroke="none" stroke-width="1" stroke-miterlimit="1"/><path id="edm95NugH6U291" d="M732,624.300000L740.300000,621.700000L743.700000,620.800000C743.900000,623.200000,745.900000,624.800000,745.900000,624.800000L739.400000,625.600000L731.900000,628L723.100000,634.300000L732,624.300000Z" fill="rgb(14,83,140)" stroke="none" stroke-width="1" stroke-miterlimit="1"/><path id="edm95NugH6U292" d="M778.400000,662L792.800000,657.900000C792.800000,657.900000,796.900000,663.600000,796.100000,665C795.300000,666.400000,796.100000,674.800000,796.100000,674.800000L789.100000,681L783.400000,679C783.400000,679,783,676.400000,784.900000,676.200000C786.900000,675.900000,783.600000,674.500000,782.600000,673.900000C781.600000,673.200000,773.300000,668.800000,778.400000,662Z" fill="rgb(252,210,177)" stroke="none" stroke-width="1" stroke-miterlimit="1"/><path id="edm95NugH6U293" d="M756.200000,523.600000C754.600000,528.300000,757,533.600000,761.600000,535.200000L769.800000,538.200000C774.400000,539.900000,779.400000,537.300000,781,532.600000L788.300000,511C789.900000,506.300000,787.500000,501,782.900000,499.300000L774.700000,496.300000C770.100000,494.600000,765.100000,497.200000,763.500000,501.900000L756.200000,523.600000Z" fill="rgb(255,149,126)" stroke="none" stroke-width="1" stroke-miterlimit="1"/><path id="edm95NugH6U294" d="M792,542.600000C791.200000,545.700000,788,547.600000,785,546.700000L760.300000,539.600000C757.300000,538.700000,755.500000,535.500000,756.300000,532.300000L766.400000,494.400000C767.200000,491.300000,770.400000,489.400000,773.400000,490.300000L798.100000,497.300000C801.100000,498.200000,802.900000,501.400000,802.100000,504.600000L792,542.600000Z" fill="rgb(252,210,177)" stroke="none" stroke-width="1" stroke-miterlimit="1"/><path id="edm95NugH6U295" d="M804.800000,500.800000C804.800000,500.800000,804.800000,500.800000,804.800000,500.800000C805,500.600000,802.500000,497.800000,803.800000,492.300000C805.500000,484.900000,800,481.900000,795.900000,481.800000C793.500000,481.700000,785.400000,485.600000,781.100000,486.900000C776.800000,488.200000,777.200000,486.500000,769.400000,485.100000C764.200000,484.100000,763,487,761.200000,491C759.400000,495.100000,759.200000,510.700000,759.200000,510.700000C759.900000,511.700000,761,512.500000,761.700000,511.700000C762.400000,510.900000,765.200000,498.400000,767.500000,494.700000C769.700000,491,778.700000,496.900000,783.600000,499.800000C788.400000,502.700000,792.700000,503.200000,800.400000,501.600000C801.300000,502.600000,802.100000,503.700000,802.100000,504.200000C802.100000,505.200000,799.900000,512.300000,799.900000,512.300000C799.900000,512.300000,804.200000,509.600000,805.400000,507.500000C806,506.800000,806.200000,503.400000,804.800000,500.800000Z" fill="rgb(15,4,76)" stroke="none" stroke-width="1" stroke-miterlimit="1"/><path id="edm95NugH6U296" d="M764.100000,524.400000C763.800000,525.400000,762.800000,526.100000,761.800000,525.800000L756.500000,524.300000C755.500000,524,754.900000,522.900000,755.200000,521.900000L757.900000,511.800000C758.200000,510.800000,759.200000,510.100000,760.200000,510.400000L765.500000,511.900000C766.500000,512.200000,767.100000,513.300000,766.800000,514.300000L764.100000,524.400000Z" fill="rgb(252,210,177)" stroke="none" stroke-width="1" stroke-miterlimit="1"/><path id="edm95NugH6U297" d="M760.800000,514.800000C760.800000,514.800000,756.800000,529.700000,755.500000,534.700000C754.300000,539.200000,753.400000,549.600000,777.900000,556.600000C792.400000,560.700000,794.800000,549.500000,795.800000,545.900000C796.500000,543.100000,795.700000,534,794.600000,532C794.600000,531.900000,793,538.200000,793,538.200000C793,538.200000,791.600000,531.300000,784.700000,529.400000C773.600000,526.200000,769.200000,532.300000,764.400000,530.700000C760.600000,529.400000,759.500000,522.200000,760.800000,514.800000Z" fill="rgb(15,4,76)" stroke="none" stroke-width="1" stroke-miterlimit="1"/><path id="edm95NugH6U298" d="M777.500000,537.700000L785.100000,539.900000C786.100000,540.200000,787.200000,539.600000,787.400000,538.500000L787.700000,537.400000L776.400000,534.200000L776.100000,535.300000C775.900000,536.400000,776.500000,537.400000,777.500000,537.700000Z" fill="rgb(252,210,177)" stroke="none" stroke-width="1" stroke-miterlimit="1"/><path id="edm95NugH6U299" d="M898,689.200000C894.500000,699.300000,832.900000,736.400000,812.200000,734.200000L749.900000,737.300000C697,730.600000,671.900000,645.400000,671.900000,645.400000C674,624,726.200000,655,744.800000,664.600000C774.200000,679.800000,792.900000,680.600000,792.900000,680.600000C812.600000,682.700000,835.400000,666.900000,860.300000,666.400000C887.600000,665.700000,903.600000,673.300000,898,689.200000Z" fill="rgb(11,72,112)" stroke="none" stroke-width="1" stroke-miterlimit="1"/><g id="edm95NugH6U300"><path id="edm95NugH6U301" d="M762.600000,679C762.600000,678.900000,762.600000,678.900000,762.600000,679L762.600000,676.200000L869.700000,674.200000L869.700000,676.900000C869.700000,676.900000,869.700000,677,869.700000,677L869.400000,677.500000C868.100000,679.900000,865.600000,680.300000,862.800000,680.400000L769.600000,682.200000C766.800000,682.300000,764.300000,681.900000,762.900000,679.600000L762.600000,679Z" fill="rgb(211,211,211)" stroke="none" stroke-width="1" stroke-miterlimit="1"/><path id="edm95NugH6U302" d="M788.400000,678.900000C788.400000,678.900000,788.400000,679,788.400000,678.900000L788.100000,679.400000C787.700000,680,787.200000,680.500000,786.600000,680.800000L770.300000,681.100000C767.600000,681.200000,765.200000,680.900000,763.800000,679L763.500000,678.600000C763.500000,678.600000,763.500000,678.600000,763.400000,678.500000L763.400000,677.200000L788.200000,676.700000L788.400000,678.900000Z" fill="rgb(211,211,211)" stroke="none" stroke-width="1" stroke-miterlimit="1"/><g id="edm95NugH6U303"><polygon id="edm95NugH6U304" points="802.900000,677.900000 856.400000,676.900000 856.400000,675 802.800000,676.100000" fill="rgb(211,211,211)" stroke="none" stroke-width="1" stroke-miterlimit="1"/></g><g id="edm95NugH6U305"><path id="edm95NugH6U306" d="M789,675.600000L801.900000,620.800000C802.200000,619.400000,803.600000,618.200000,805,618.100000L880.200000,616.700000C881.600000,616.700000,882.400000,617.800000,882.100000,619.300000L869.200000,674.100000L789,675.600000Z" fill="rgb(211,211,211)" stroke="none" stroke-width="1" stroke-miterlimit="1"/></g></g><path id="edm95NugH6U307" d="M740.500000,751.400000C747.900000,752.700000,753.600000,743.800000,753.600000,743.800000L772.800000,728.200000L768.700000,717.600000L731.300000,735C731.300000,735,733,750.100000,740.500000,751.400000Z" fill="rgb(252,210,177)" stroke="none" stroke-width="1" stroke-miterlimit="1"/><path id="edm95NugH6U308" d="M753.500000,743.200000C753.500000,743.200000,753.500000,744.100000,752.100000,748.200000C750.700000,752.300000,748.900000,753.700000,747.100000,754.300000C739.900000,756.500000,734.800000,755.400000,717.600000,758.800000C700.400000,762.200000,695.200000,759.600000,690.200000,751.400000C685.200000,743.200000,690.400000,736.700000,698.800000,736.100000C710.900000,735.200000,717.700000,736.600000,724,735.600000C730.600000,734.600000,731,733,734.900000,730.500000C738.500000,728.200000,741.900000,742,738.500000,745.200000C735.400000,748,751,748.400000,753.500000,743.200000Z" fill="rgb(255,183,80)" stroke="none" stroke-width="1" stroke-miterlimit="1"/><path id="edm95NugH6U309" d="M749.900000,751.100000C742.800000,753.300000,737.600000,752.200000,720.400000,755.600000C703.200000,759,698,756.400000,693,748.200000C690.700000,744.400000,690.600000,741,691.900000,738.400000C688.100000,741.100000,686.800000,745.800000,690.200000,751.400000C695.200000,759.600000,700.400000,762.200000,717.600000,758.800000C734.800000,755.400000,740,756.500000,747.100000,754.300000C748.500000,753.900000,749.900000,752.900000,751.100000,750.600000C750.700000,750.800000,750.300000,751,749.900000,751.100000Z" fill="rgb(255,255,255)" stroke="none" stroke-width="1" stroke-miterlimit="1"/><path id="edm95NugH6U310" d="M753.500000,743.500000C753.500000,743.300000,753.500000,743.300000,753.500000,743.300000C753.500000,743.400000,753.400000,743.500000,753.300000,743.600000C753.400000,743.500000,753.500000,743.500000,753.500000,743.500000Z" fill="rgb(233,214,184)" stroke="none" stroke-width="1" stroke-miterlimit="1"/><g id="edm95NugH6U311"><path id="edm95NugH6U312" d="M716.400000,749.600000C715.900000,749.800000,715.400000,748.700000,715.200000,747.200000C714.900000,744.100000,714.200000,741.100000,713.200000,738C712.700000,736.500000,712.700000,735.200000,713.300000,735C713.900000,734.800000,714.900000,735.900000,715.300000,737.400000C716.300000,740.400000,716.900000,743.500000,717.200000,746.500000C717.400000,748,716.900000,749.400000,716.400000,749.600000Z" fill="rgb(255,255,255)" stroke="none" stroke-width="1" stroke-miterlimit="1"/><path id="edm95NugH6U313" d="M721.700000,748.600000C721.100000,748.700000,720.600000,747.700000,720.400000,746.300000C720.100000,743.400000,719.400000,740.500000,718.400000,737.700000C717.900000,736.300000,717.900000,735.100000,718.600000,735C719.200000,734.900000,720.200000,736,720.700000,737.400000C721.600000,740.200000,722.300000,743.100000,722.600000,745.900000C722.700000,747.300000,722.300000,748.500000,721.700000,748.600000Z" fill="rgb(255,255,255)" stroke="none" stroke-width="1" stroke-miterlimit="1"/><path id="edm95NugH6U314" d="M727.300000,748.400000C726.700000,748.500000,726.100000,747.400000,725.900000,745.900000C725.400000,742.900000,724.700000,740,723.600000,737C723.100000,735.500000,723.100000,734.300000,723.700000,734.300000C724.400000,734.300000,725.400000,735.400000,725.900000,736.900000C727,739.800000,727.700000,742.800000,728.100000,745.700000C728.300000,747.100000,727.900000,748.300000,727.300000,748.400000Z" fill="rgb(255,255,255)" stroke="none" stroke-width="1" stroke-miterlimit="1"/></g><path id="edm95NugH6U315" d="M741.800000,725.900000C741.800000,725.900000,873.500000,669.800000,881,669.700000C906.400000,669.500000,900.600000,696.100000,887.700000,708.700000C872.500000,723.500000,756.900000,750.600000,756.900000,750.600000L741.800000,725.900000Z" fill="rgb(14,83,140)" stroke="none" stroke-width="1" stroke-miterlimit="1"/><polygon id="edm95NugH6U316" points="794,735.700000 758,700.300000 773.400000,684.600000 812.600000,727.400000" fill="rgb(252,210,177)" stroke="none" stroke-width="1" stroke-miterlimit="1"/><path id="edm95NugH6U317" d="M801.400000,707.900000C801.400000,707.900000,709.900000,621,703.800000,618.400000C682.900000,609.600000,670,633.500000,670.700000,641.800000C671.700000,652.500000,764.600000,739.500000,764.600000,739.500000L801.400000,707.900000Z" fill="rgb(14,83,140)" stroke="none" stroke-width="1" stroke-miterlimit="1"/><g id="edm95NugH6U318"><path id="edm95NugH6U319" d="M855.600000,738.400000C857.700000,740.400000,858.100000,746.500000,858.100000,746.500000C858.100000,746.500000,827.600000,758.500000,816.900000,758.700000C814.100000,758.800000,809.100000,757.600000,804.300000,756.200000C803.500000,756,801.600000,753.800000,800.800000,753.600000C799.300000,753.200000,799,754.600000,797.800000,754.200000C794.600000,753.100000,792.200000,752.200000,792.100000,752C785.600000,737.800000,787.800000,730.800000,787.800000,730.800000C787.800000,730.800000,801.800000,735,799.400000,731.700000C794.300000,724.700000,809,717.600000,812.200000,721.300000C825.400000,736.200000,849.400000,732.500000,855.600000,738.400000Z" fill="rgb(255,183,80)" stroke="none" stroke-width="1" stroke-miterlimit="1"/><path id="edm95NugH6U320" d="M857.300000,741.400000C847.900000,745.300000,828.200000,753.200000,824.300000,753.500000C808.200000,754.700000,797,748.800000,789.500000,745.300000C790.200000,747.300000,791,749.600000,792.100000,752C792.200000,752.200000,794.500000,753.100000,797.800000,754.200000C799.100000,754.600000,799.400000,753.100000,800.800000,753.600000C801.600000,753.800000,803.400000,756,804.300000,756.200000C809.100000,757.600000,814.100000,758.700000,816.900000,758.700000C827.600000,758.500000,858.100000,746.500000,858.100000,746.500000C858.100000,746.500000,858.100000,743.700000,857.300000,741.400000Z" fill="rgb(255,255,255)" stroke="none" stroke-width="1" stroke-miterlimit="1"/><g id="edm95NugH6U321"><path id="edm95NugH6U322" d="M835.800000,732.200000C836.100000,732.800000,834.900000,733.400000,833.200000,733.800000C829.700000,734.500000,826.300000,735.600000,822.900000,737C821.200000,737.700000,819.700000,737.900000,819.500000,737.300000C819.300000,736.700000,820.400000,735.600000,822.100000,734.900000C825.400000,733.500000,828.900000,732.500000,832.300000,731.800000C833.900000,731.300000,835.500000,731.600000,835.800000,732.200000Z" fill="rgb(255,255,255)" stroke="none" stroke-width="1" stroke-miterlimit="1"/><path id="edm95NugH6U323" d="M828.900000,729.700000C829.200000,730.300000,828,731.100000,826.300000,731.600000C822.900000,732.600000,819.600000,734,816.300000,735.700000C814.700000,736.500000,813.200000,736.800000,813,736.200000C812.800000,735.600000,813.900000,734.300000,815.500000,733.500000C818.700000,731.900000,822,730.500000,825.400000,729.600000C827.100000,728.900000,828.700000,729.100000,828.900000,729.700000Z" fill="rgb(255,255,255)" stroke="none" stroke-width="1" stroke-miterlimit="1"/><path id="edm95NugH6U324" d="M822.300000,727.500000C822.500000,728.100000,821.400000,729,819.800000,729.600000C816.500000,730.900000,813.300000,732.500000,810.200000,734.400000C808.700000,735.400000,807.300000,735.700000,807.100000,735C806.900000,734.400000,807.900000,733,809.500000,732C812.600000,730.100000,815.800000,728.500000,819,727.300000C820.600000,726.800000,822.100000,726.900000,822.300000,727.500000Z" fill="rgb(255,255,255)" stroke="none" stroke-width="1" stroke-miterlimit="1"/></g></g></g></g></svg>